# xmcd CD database file
#
# Track frame offsets:
#	150
#	23927
#	46879
#	73806
#	96533
#	121735
#	135537
#	151889
#	186316
#	207468
#
# Disc length: 3211 seconds
#
# Revision: 7
# Processed by: cddbd v1.5.1PL0 Copyright (c) Steve Scherf et al.
# Submitted via: CDex 1.51
#
DISCID=8f0c890a
DTITLE=Various Artist - Stereoplay  The Power Of Blues and Folk
DYEAR=1999
DGENRE=Blues
TTITLE0=Stephen Fearing - Home
TTITLE1=Duke Robillard - That's My Life
TTITLE2=Popa Chubby - She Said That Evil Was Her Name
TTITLE3=Dave Alvin - Blackjack David
TTITLE4=John Gorka - Wisdom
TTITLE5=James Armstrong - Dark Night
TTITLE6=Roy Gaines - Stormy Monday
TTITLE7=Geoff Muldaur - Chevrolet - Big Alice
TTITLE8=Guy Davis - Home Cooked Meal
TTITLE9=Jacintha - Danny Boy
EXTD=Beilage zu Stereoplay Heft 03/1999 YEAR: 1999
EXTT0=
EXTT1=
EXTT2=
EXTT3=
EXTT4=
EXTT5=
EXTT6=
EXTT7=
EXTT8=
EXTT9=
PLAYORDER=
